<svg xmlns="http://www.w3.org/2000/svg" xmlns:xlink="http://www.w3.org/1999/xlink" width="120" height="120" viewBox="0 0 120 120">
  <defs>
    <radialGradient id="radial-gradient" cx="0.5" cy="0.5" r="0.821" gradientTransform="matrix(0.035, 0.999, -0.74, 0.026, 0.852, -0.013)" gradientUnits="objectBoundingBox">
      <stop offset="0" stop-color="#2196f3"/>
      <stop offset="1" stop-color="#10519d"/>
    </radialGradient>
  </defs>
  <g id="atavism_logo_big" transform="translate(-916 -505)">
    <rect id="Rectangle_2" data-name="Rectangle 2" width="120" height="120" transform="translate(916 505)" fill="none"/>
    <g id="Group_1" data-name="Group 1" transform="translate(916 512.49)">
      <path id="Path_1" data-name="Path 1" d="M2202.771,457.148s1.756,44.48-62.3,91.739c0,0-2.681,3-.554,5.822a4.581,4.581,0,0,0,5.36,1.432s26.875-22.508,66.6-26.277c0,0,6.553,10.3,28.5,25.445,0,0,3.743,1.617,5.822-.554s0-5.868,0-5.868-18.768-14.172-23.453-19.872c0,0,6.517-1.674,31.428.356,0,0,4.835-.711,4.764-5.118s-4.764-4.976-4.764-4.976-44.906-5.008-78.206,10.588c0,0,10.693-12.307,17.6-23.879,0,0,5.406,9.37,9.07,12.734a42.778,42.778,0,0,0,9.971-.36s-11.293-15.257-14.3-21.023c0,0,10.289-12.382,13.673-40.188a4.2,4.2,0,0,0-4.266-3.732A5.27,5.27,0,0,0,2202.771,457.148Z" transform="translate(-2139.095 -453.178)" fill="url(#radial-gradient)"/>
      <path id="Path_2" data-name="Path 2" d="M2173.608,495.747c-.273-.41-10.228-13.111-13.916-38.113,0,0,.125-4.353,4.54-4.353a4.84,4.84,0,0,1,5.1,3.669s2.637,16.391,7.556,25a15.438,15.438,0,0,1-2.287,12.13Z" transform="translate(-2124.776 -453.281)" fill="url(#radial-gradient)"/>
    </g>
  </g>
</svg>
